<svg xmlns="http://www.w3.org/2000/svg" xml:space="preserve" id="layer" x="0" y="0" style="enable-background:new -153-46 652 652" version="1.1" viewBox="-153 -46 652 652">
  <style>
    .st0{fill:#cb2026}
  </style>
  <g id="Page-1">
    <g id="red-bain-logo-orig">
      <path id="Shape" d="M124 275.3c-.1 5.2 1.9 10.1 5.6 13.8 3.7 3.7 8.6 5.7 13.8 5.6 10.7 0 19.4-8.7 19.4-19.4.2-5.2-1.8-10.3-5.4-14-3.7-3.7-8.7-5.7-13.9-5.6-10.9.2-19.5 8.9-19.5 19.6zm7.3 0c0-6.9 4.9-13.3 12.3-13.3 7.3 0 12.3 5.4 12.3 13.3.2 3.4-1 6.7-3.3 9.2-2.3 2.5-5.5 3.9-8.9 3.9-7.5.2-12.4-5.4-12.4-13.1z" class="st0"/>
      <path id="Shape_1_" d="M81.6 275.3c-.2 5.2 1.8 10.2 5.4 13.9 3.7 3.7 8.7 5.6 13.9 5.4 5.9.2 11.4-2.6 14.8-7.3l.2-.2-5.4-4.5-.2.4c-1.9 3.6-5.6 5.8-9.7 5.6-7.3 0-12.3-5.8-12.3-13.3a12.62 12.62 0 0 1 12.2-13.3c3.9.1 7.5 2.1 9.7 5.4l.2.2 5.4-4.3-.2-.2c-3.7-4.5-9.2-7.1-15.1-7.1-5.1 0-10 2-13.6 5.7-3.4 3.6-5.4 8.5-5.3 13.6z" class="st0"/>
      <path id="Shape_2_" d="M354.3 278.3v15.5h6.9v-15.5l13.5-21.5h-7.5l-9.5 14.8-9-14.8h-7.9z" class="st0"/>
      <path id="Shape_3_" d="M228.5 256.8v37h7.1V280c.4 0 1.1.2 1.7.2 9 0 15.3-3.9 15.3-11.6 0-7.3-5.4-11.8-15.5-11.8h-8.6zm7.1 5.6h1.7c5.8 0 8.2 2.2 8.2 6s-2.6 6-8.2 6c-.6.1-1.2 0-1.7-.2v-11.8z" class="st0"/>
      <path id="Shape_4_" d="m181.6 273.8 11.6 21.1 11.4-21.1 4.5 20h7.4l-9.7-37.6-13.4 24.9-13.7-24.9-9.3 37.8h6.9z" class="st0"/>
      <path id="Shape_5_" d="m-8.3 278.7-24.5-22.5V294h6.7v-21.9l24.7 22.8v-38.1h-6.9z" class="st0"/>
      <path id="Shape_6_" d="M-56 256.8v37h7.1v-37z" class="st0"/>
      <path id="Shape_7_" d="M-65 293.8-83.1 256l-18.1 37.8h7.1l3.7-8h14.2l3.4 8h7.8zM-87.8 280l4.7-10.8 4.3 10.8h-9z" class="st0"/>
      <path id="Shape_8_" d="M-113.7 274.2c3-1.4 5-4.4 4.9-7.7 0-6.5-5.2-9.7-14-9.7h-8.8v37h10.5c9.5 0 14.6-3.9 14.6-10.8 0-4.2-3-7.9-7.2-8.8zm-7.7 3.9c4.9 0 7.7 1.3 7.7 5.2 0 3.4-2.6 4.9-7.7 4.9h-3v-10.1h3zm-3-5.6v-10.1h1.3c5.2 0 7.7 1.3 7.7 5.2s-2.6 4.9-7.5 4.9h-1.5z" class="st0"/>
      <path id="Shape_9_" d="M51.5 294h8.2s-6.2-7.1-7.3-8.4c.9-1.1 6.2-9.2 6.2-9.2h-6.7l-3.2 4.9-5.8-6.7c4.9-2.6 8-6.2 8-10.1 0-5.2-4.5-8.6-10.3-8.6-6.5 0-10.8 3.9-10.8 9 .2 3.3 1.7 6.5 4.1 8.8-3.9 2.2-7.3 5.4-7.3 10.8 0 5.8 4.7 10.3 11.6 10.3 3.9.1 7.7-1.6 10.3-4.5l3 3.7zm-15.3-28.8c0-1.2.4-2.3 1.2-3.1s1.9-1.3 3.1-1.2a3.78 3.78 0 0 1 4.1 3.8c0 2.6-2.6 4.5-5.2 5.8a8.4 8.4 0 0 1-3.2-5.3zm8.4 21.1a7.25 7.25 0 0 1-5.8 2.8c-1.4.1-2.9-.3-4-1.3s-1.7-2.4-1.6-3.8c.2-2.5 1.6-4.8 3.9-6h.2l7.3 8.3z" class="st0"/>
      <path id="Shape_10_" d="M325.5 278.7 301 256.2v37.6h6.9v-21.7l24.5 22.8v-38.1h-6.9z" class="st0"/>
      <path id="Shape_11_" d="M291.9 293.8 273.8 256l-18.1 37.8h7.1l3.7-8h14.2l3.4 8h7.8zM269.1 280l4.7-10.8 4.3 10.8h-9z" class="st0"/>
      <path id="Shape_12_" d="m447.2 277-6-26.7-16.6 21.5 22.6 5.2zm21.3-1.7c0 18.2-14.7 32.9-32.9 32.9s-32.9-14.7-32.9-32.9a32.86 32.86 0 0 1 38.1-32.5l-2.8 3.7h-2.4c-7.3-.1-14.3 2.7-19.5 7.8-5.2 5.1-8.2 12-8.3 19.3a27.7 27.7 0 1 0 55.4 0c-.1-11.2-7.1-21.3-17.6-25.2l-1.1-4.5c14.2 3.9 24 16.8 24 31.4z" class="st0"/>
    </g>
  </g>
</svg>
