<?xml version="1.0" encoding="utf-8"?>
<!-- Generator: Adobe Illustrator 19.2.1, SVG Export Plug-In . SVG Version: 6.00 Build 0)  -->
<svg version="1.1" id="layer" xmlns="http://www.w3.org/2000/svg" xmlns:xlink="http://www.w3.org/1999/xlink" x="0px" y="0px"
	 viewBox="0 0 652 652" style="enable-background:new 0 0 652 652;" xml:space="preserve">
<style type="text/css">
	.st0{fill:#1C1C1C;}
</style>
<g id="Page-1">
	<g id="Homepage---Vista" transform="translate(-94.000000, -57.000000)">
		<g id="Navigation---OPEN-" transform="translate(-5.000000, -17.000000)">
			<path id="Logo---Blue" class="st0" d="M130.8,373.1c-0.4,1.2-0.7,3-0.7,5.4v31.6c0,2.5,0.2,4.3,0.7,5.5c0.4,1.2,1.2,2.2,2.3,3.2
				h-13.5c1-0.9,1.8-2,2.2-3.2c0.5-1.2,0.7-3,0.7-5.5v-31.6c0-2.5-0.2-4.3-0.7-5.4c-0.5-1.2-1.2-2.2-2.2-3.1H133
				C132,370.9,131.2,371.9,130.8,373.1L130.8,373.1z M149.9,417.3c-1.7-1-3.7-3.1-5.9-6.3l-12.6-17.8l11.4-15.2
				c0.8-1.1,1.4-2,1.8-2.7c0.4-0.7,0.6-1.3,0.6-1.8c0-0.5-0.2-1.1-0.5-1.6c-0.3-0.6-0.8-1.1-1.4-1.8h12.3l-15.8,21.8l14.4,20.2
				c0.6,0.8,1.4,1.8,2.4,2.9c1,1.1,2.4,2.4,4,3.9h-4.1C153.7,418.8,151.6,418.3,149.9,417.3L149.9,417.3z M173,415.6
				c0.4,1.2,1.2,2.2,2.3,3.2h-13.5c1.1-0.9,1.8-2,2.3-3.2c0.4-1.2,0.7-3,0.7-5.5v-31.6c0-2.5-0.2-4.3-0.7-5.4
				c-0.4-1.2-1.2-2.2-2.3-3.1h13.5c-1.1,0.9-1.8,2-2.3,3.1c-0.4,1.2-0.7,3-0.7,5.4v31.6C172.3,412.6,172.5,414.4,173,415.6
				L173,415.6z M220.1,418.8c-1.8,0-3.5-0.5-5.2-1.4c-1.7-0.9-3.1-2.2-4.3-3.9l-14.5-20.1c4.3-1,7.5-2.3,9.5-3.9c2-1.7,3-3.8,3-6.5
				c0-2.4-0.9-4.4-2.6-6c-1.7-1.5-4-2.3-6.8-2.3c-0.6,0-1.4,0.1-2.3,0.2c-0.9,0.1-1.9,0.3-3,0.5v34.8c0,2.5,0.2,4.3,0.7,5.5
				c0.4,1.2,1.2,2.2,2.3,3.2h-13.5c1-0.9,1.8-2,2.2-3.2c0.5-1.2,0.7-3,0.7-5.5v-31.6c0-2.5-0.2-4.3-0.7-5.5
				c-0.5-1.2-1.2-2.2-2.2-3.1h17c4.8,0,8.7,1.1,11.7,3.4c3,2.3,4.4,5.3,4.4,9c0,2.7-0.9,5-2.7,7.1c-1.8,2-4.6,3.8-8.3,5.4l12.7,16.9
				c0.8,1,1.7,2.1,2.7,3.2c1.1,1.1,2.3,2.3,3.7,3.5l-3.8,0.4H220.1z M238.3,373.1c-0.4,1.2-0.7,3-0.7,5.4v31.6
				c0,2.5,0.2,4.3,0.7,5.5c0.4,1.2,1.2,2.2,2.3,3.2H227c1-0.9,1.8-2,2.2-3.2c0.5-1.2,0.7-3,0.7-5.5v-31.6c0-2.5-0.2-4.3-0.7-5.4
				c-0.5-1.2-1.2-2.2-2.2-3.1h13.5C239.4,370.9,238.7,371.9,238.3,373.1L238.3,373.1z M257.3,417.3c-1.7-1-3.7-3.1-5.9-6.3
				l-12.6-17.8l11.4-15.2c0.8-1.1,1.4-2,1.8-2.7c0.4-0.7,0.6-1.3,0.6-1.8c0-0.5-0.2-1.1-0.5-1.6c-0.3-0.6-0.8-1.1-1.4-1.8h12.3
				l-15.8,21.8l14.4,20.2c0.6,0.8,1.4,1.8,2.4,2.9c1,1.1,2.4,2.4,4,3.9h-4.1C261.2,418.8,259,418.3,257.3,417.3L257.3,417.3z
				 M268.9,418.8c1-0.9,1.8-2,2.2-3.2c0.5-1.2,0.7-3,0.7-5.5v-31.5c0-2.5-0.2-4.3-0.7-5.4c-0.5-1.2-1.2-2.2-2.2-3.1h13.5
				c-1.1,0.9-1.8,2-2.3,3.1c-0.4,1.2-0.7,3-0.7,5.4v33.9c1.9,0.3,3.6,0.5,5.1,0.6c1.5,0.1,2.8,0.2,3.9,0.2c2.5,0,4.8-0.3,7-1
				c2.2-0.7,4.4-1.7,6.5-3.1l-3.4,9.6H268.9z M324.1,376.7l-7.5,18.8H331L324.1,376.7z M336.2,418.6c1.3-1.4,1.9-2.4,1.9-3
				c0-0.8-0.3-1.9-0.9-3.3c-0.1-0.2-0.1-0.4-0.2-0.5l-4.2-11.3h-18.2l-4.7,11.7c-0.2,0.5-0.4,1-0.5,1.5c-0.1,0.5-0.2,1.1-0.2,1.6
				c0,0.5,0.2,1,0.5,1.6c0.3,0.6,0.9,1.2,1.7,1.9h-11.6c1-0.7,1.8-1.6,2.6-2.7c0.8-1.2,1.5-2.7,2.4-4.7l13.8-34.8
				c0.3-0.7,0.5-1.3,0.6-1.9c0.1-0.6,0.2-1.2,0.2-1.7c0-0.6-0.1-1.1-0.4-1.5c-0.3-0.5-0.7-0.9-1.3-1.4h11.1l15.6,40.9
				c0.7,1.9,1.5,3.4,2.4,4.5c0.8,1.2,1.9,2.3,3.2,3.4H336L336.2,418.6z M396,373.1c-0.4,1.2-0.7,3-0.7,5.4v41.3
				c-1.7,0-3.3-0.6-4.9-1.6c-1.5-1-3.5-3-5.8-6l-25.3-31.8v29.6c0,2.6,0.2,4.4,0.6,5.6c0.4,1.1,1.2,2.2,2.2,3.1H351
				c1-0.9,1.8-2,2.2-3.2c0.5-1.2,0.7-3,0.7-5.5v-31.6c0-2.5-0.2-4.3-0.7-5.4c-0.5-1.2-1.2-2.2-2.2-3.1h10l29,36.6v-28.1
				c0-2.5-0.2-4.3-0.7-5.4s-1.2-2.2-2.2-3.1h11.2C397.2,370.9,396.4,371.9,396,373.1L396,373.1z M437.8,380.4
				c-3.5-3.5-8.2-5.2-14.1-5.2c-1.2,0-2.4,0.1-3.7,0.2c-1.3,0.2-2.5,0.4-3.8,0.8v36.7c1.8,0.3,3.3,0.5,4.6,0.6
				c1.3,0.1,2.4,0.2,3.4,0.2c5.5,0,10-1.8,13.5-5.5c3.6-3.7,5.3-8.3,5.3-13.9C443.1,388.5,441.3,383.9,437.8,380.4L437.8,380.4z
				 M444.6,410.7c-2.6,2.8-5.8,4.9-9.5,6.1c-3.8,1.3-8.6,1.9-14.6,1.9h-14.7c1-0.9,1.8-1.9,2.2-3.1c0.4-1.1,0.6-3,0.6-5.5v-31.6
				c0-2.6-0.2-4.4-0.6-5.6c-0.4-1.1-1.2-2.2-2.2-3.1h17c4.6,0,8.4,0.4,11.4,1.3c3,0.9,5.8,2.3,8.3,4.4c2.8,2.2,5,4.9,6.4,7.9
				c1.4,3,2.2,6.4,2.2,10.1c0,3.4-0.5,6.5-1.6,9.3C448.3,405.8,446.7,408.4,444.6,410.7L444.6,410.7z M493.8,393.8
				c-2.3,1.9-4,3.7-5.1,5.5c-1.1,1.8-1.6,3.6-1.6,5.5c0,2.7,0.9,5,2.8,6.9c1.9,1.8,4.2,2.8,7,2.8c2.2,0,4.3-0.5,6.1-1.5
				c1.8-1,3.6-2.7,5.3-4.9L493.8,393.8z M499.9,378.1c0-1.4-0.5-2.5-1.4-3.4c-0.9-0.9-2.2-1.3-3.6-1.3c-1.3,0-2.5,0.4-3.4,1.3
				c-0.9,0.9-1.3,2-1.3,3.3c0,1,0.4,2,1.2,3.2c0.8,1.2,2,2.6,3.7,4.2c1.6-1.1,2.8-2.2,3.6-3.4C499.5,380.8,499.9,379.5,499.9,378.1
				L499.9,378.1z M519.4,417.1c-2.4-1.1-5-3-7.7-5.7c-2.3,2.8-4.8,5-7.6,6.4c-2.8,1.4-5.7,2.1-9,2.1c-4.6,0-8.4-1.4-11.5-4.2
				c-3.1-2.8-4.6-6.2-4.6-10.4c0-2.6,0.8-5.2,2.4-7.7c1.6-2.5,4.2-5.3,7.8-8.2c-1.9-2.1-3.3-4-4.2-5.7c-0.9-1.7-1.4-3.3-1.4-4.8
				c0-2.8,1.1-5.1,3.4-7c2.3-1.9,5.1-2.8,8.5-2.8c2.9,0,5.3,0.9,7.4,2.8c2,1.9,3,4.2,3,6.9c0,1.8-0.5,3.6-1.6,5.5
				c-1.1,1.8-2.7,3.7-4.9,5.6l17.3,16.5c1.8,1.7,4.2,3.6,7.2,5.8s6.4,4.4,10.2,6.7h-6.7C524.4,418.8,521.8,418.2,519.4,417.1
				L519.4,417.1z M567.5,413c1.5,0.1,2.8,0.2,3.9,0.2c2.5,0,4.8-0.3,7.1-1c2.2-0.7,4.4-1.7,6.5-3.1l-3.4,9.6h-29.8
				c1-0.9,1.8-2,2.3-3.2c0.5-1.2,0.7-3,0.7-5.5v-31.5c0-2.5-0.2-4.3-0.7-5.4c-0.5-1.2-1.2-2.2-2.3-3.1h26.9v7.7
				c-1.2-0.9-2.5-1.6-4-2.1c-1.4-0.4-3.1-0.6-5-0.6c-1,0-2,0.1-3.3,0.2c-1.2,0.2-2.6,0.4-4.1,0.7v13.8h12v7.1
				c-0.6-0.7-1.3-1.1-2.3-1.4c-1-0.3-2.7-0.4-5.3-0.4h-4.4v17.5C564.3,412.7,566,412.9,567.5,413L567.5,413z M589.8,418.8
				c1-0.9,1.8-2,2.2-3.2c0.5-1.2,0.7-3,0.7-5.5v-31.5c0-2.5-0.2-4.3-0.7-5.4c-0.5-1.2-1.2-2.2-2.2-3.1h13.5c-1.1,0.9-1.8,2-2.3,3.1
				c-0.4,1.2-0.7,3-0.7,5.4v33.9c1.9,0.3,3.6,0.5,5.1,0.6c1.5,0.1,2.8,0.2,3.9,0.2c2.5,0,4.8-0.3,7-1c2.2-0.7,4.4-1.7,6.5-3.1
				l-3.4,9.6H589.8z M627.2,418.8c1-0.9,1.8-2,2.2-3.2c0.5-1.2,0.7-3,0.7-5.5v-31.5c0-2.5-0.2-4.3-0.7-5.4c-0.5-1.2-1.2-2.2-2.2-3.1
				h13.5c-1.1,0.9-1.8,2-2.3,3.1c-0.4,1.2-0.7,3-0.7,5.4v33.9c1.9,0.3,3.6,0.5,5.1,0.6s2.8,0.2,3.9,0.2c2.5,0,4.8-0.3,7-1
				c2.2-0.7,4.4-1.7,6.5-3.1l-3.4,9.6H627.2z M676,415.6c0.4,1.2,1.2,2.2,2.3,3.2h-13.5c1.1-0.9,1.8-2,2.3-3.2
				c0.4-1.2,0.7-3,0.7-5.5v-31.6c0-2.5-0.2-4.3-0.7-5.4c-0.4-1.2-1.2-2.2-2.3-3.1h13.5c-1.1,0.9-1.8,2-2.3,3.1
				c-0.4,1.2-0.7,3-0.7,5.4v31.6C675.4,412.6,675.6,414.4,676,415.6L676,415.6z M713.7,415.7c-3.9,2.9-8.7,4.4-14.5,4.4
				c-1.9,0-3.9-0.2-6-0.6c-2.1-0.4-4.5-1-7-1.8l-2.3-8.8c2.8,1.9,5.6,3.3,8.3,4.2c2.7,0.9,5.3,1.4,8,1.4c3.4,0,6.1-0.7,8.1-2.2
				c2-1.4,3.1-3.3,3.1-5.6c0-0.7-0.1-1.3-0.3-2c-0.2-0.7-0.5-1.3-0.9-1.9c-0.9-1.3-3.9-3.2-9-5.7c-1.3-0.6-2.3-1.1-3-1.4
				c-4.8-2.4-8-4.6-9.8-6.6c-1.8-2-2.7-4.4-2.7-7.2c0-4,1.6-7.1,4.9-9.4c3.2-2.3,7.7-3.5,13.3-3.5c1.6,0,3.4,0.1,5.4,0.3
				c2,0.2,4.1,0.5,6.3,1v8.2c-2-1.5-4.1-2.7-6.1-3.4c-2-0.7-4.2-1.1-6.4-1.1c-2.8,0-5,0.6-6.7,1.8c-1.7,1.2-2.6,2.7-2.6,4.7
				c0,1.7,0.7,3.2,2,4.5c1.3,1.3,4.3,3.1,9,5.3c0.3,0.1,0.7,0.3,1.2,0.6c3.9,1.8,6.9,3.5,8.9,5c1.5,1.1,2.6,2.5,3.4,4.1
				c0.8,1.6,1.2,3.3,1.2,5.2C719.5,409.2,717.6,412.8,713.7,415.7L713.7,415.7z"/>
		</g>
	</g>
</g>
</svg>
