<svg version="1.2" xmlns="http://www.w3.org/2000/svg" viewBox="0 0 1506 289" width="1506" height="289">
	<title>pwpddd-svg</title>
	<style>
		.s0 { fill: #615472 } 
	</style>
	<g id="Layer_2">
		<g id="Layer_1-2">
			<path id="Layer" fill-rule="evenodd" class="s0" d="m633 2.3l79.2 198.6l-34 85.2l-113.3-283.8zm139.8 0l79.4 198.6l-34 85.2l-113.4-283.8zm79.1 0h68l-33.9 85zm-851.9 0h68.1v283.7h-68.1zm237.6 88.8c0 61.4-50.8 88.6-122.5 88.6h-21.8v-1.4h7.2c35.7 0 68.1-27 68.1-87.2c0-60.2-31.9-87.4-68.1-87.4h-7.2v-1.4h21.8c71.7 0 122.5 27.3 122.5 88.8zm1030.2-88.8h68v283.8h-68zm237.7 88.8c0 61.4-50.8 88.6-122.6 88.6h-21.6v-1.4h7.1c35.6 0 68-27 68-87.2c0-60.2-31.7-87.4-68-87.4h-7.1v-1.4h21.5c71.7 0 122.7 27.3 122.7 88.8z" />
			<path id="Layer" class="s0" d="m1018.8 288.5l-12.3-4.7l111-283.8l12.1 4.8l-110.8 283.7" />
			<path id="Layer" class="s0" d="m326.3 288.5l-12.3-4.7l111-283.8l12.1 4.8l-110.8 283.7" />
		</g>
	</g>
</svg>