<?xml version="1.0" encoding="UTF-8" standalone="no"?>
<!-- Created with Inkscape (http://www.inkscape.org/) -->

<svg
   version="1.1"
   id="svg1"
   width="1709.5867"
   height="1914.5067"
   viewBox="0 0 1709.5867 1914.5067"
   sodipodi:docname="UGF-1 Vector.eps"
   xmlns:inkscape="http://www.inkscape.org/namespaces/inkscape"
   xmlns:sodipodi="http://sodipodi.sourceforge.net/DTD/sodipodi-0.dtd"
   xmlns="http://www.w3.org/2000/svg"
   xmlns:svg="http://www.w3.org/2000/svg">
  <defs
     id="defs1" />
  <sodipodi:namedview
     id="namedview1"
     pagecolor="#ffffff"
     bordercolor="#000000"
     borderopacity="0.25"
     inkscape:showpageshadow="2"
     inkscape:pageopacity="0.0"
     inkscape:pagecheckerboard="0"
     inkscape:deskcolor="#d1d1d1">
    <inkscape:page
       x="0"
       y="0"
       inkscape:label="1"
       id="page1"
       width="1709.5867"
       height="1914.5067"
       margin="0"
       bleed="0" />
  </sodipodi:namedview>
  <g
     id="g1"
     inkscape:groupmode="layer"
     inkscape:label="1">
    <g
       id="group-R5">
      <path
         id="path2"
         d="m 493.105,13864.2 c 1184.495,0 10472.395,0 11835.695,1.1 0,-7395.52 -1246.1,-10947 -5917.35,-13313.999 C 1614.96,2918.3 493.105,6468.64 493.105,13864.2"
         style="fill:#52a9e2;fill-opacity:1;stroke:none"
         transform="matrix(0.13333333,0,0,-0.13333333,0,1914.5067)" />
      <path
         id="path3"
         d="m 12007,11117.4 -2070.61,-73.4 2061.81,-73.2 c -3.3,-53.8 -6.8,-107.2 -10.3,-160.4 l -2051.51,-72.7 2041.41,-72.4 c -3.8,-54.4 -7.8,-108.3 -11.9,-161.9 l -2029.51,-72 2018.21,-71.6 c -4.5,-54.9 -9.1,-109.5 -13.8,-163.6 l -2004.41,-71.1 1991.81,-70.6 c -5.1,-55.6 -10.3,-110.84 -15.7,-165.61 l -1976.11,-70.07 1962.01,-69.58 c -5.9,-56.38 -11.8,-112.25 -18,-167.77 l -1944.01,-68.94 1928.51,-68.39 c -6.6,-57.15 -13.4,-113.99 -20.3,-170.23 l -1908.21,-67.67 1891.11,-67.07 c -4.6,-36.15 -9.4,-72.19 -14.2,-107.97 -2.9,-21.78 -6,-43.33 -8.9,-65.01 l -1868.01,-66.24 1849.41,-65.57 c -8.5,-59.09 -17.2,-117.82 -26.1,-176.06 l -1823.31,-64.66 1803.21,-63.93 c -9.7,-60.29 -19.6,-120.07 -29.6,-179.46 l -1479,-52.45 -5.2,7.11 -5.4,-7.49 -284.01,-10.07 269.81,-9.56 -182.7,-252.02 -30.9,-42.7 -56.21,-2 53.39,-1.89 -1071.9,-1479.09 -2345.74,3232.36 -202.47,279.03 -202.3,-279.16 -2338.04,-3226.24 -845.55,1165.14 118.37,3.57 -123.66,3.72 -212.24,292.46 335.9,10.1 -350.9,10.57 -24.87,34.27 -177.64,244.78 553.41,16.66 -578.13,17.41 -0.11,0.15 -0.11,-0.14 -1434.07,43.16 c -9.89,60.94 -19.54,122.35 -28.97,184.27 l 2041.39,61.44 -2059.8,62.01 c -8.76,60.02 -17.27,120.58 -25.61,181.51 l 2085.41,62.77 -2102.271,63.28 c -2.852,21.79 -5.758,43.45 -8.555,65.36 -4.82,37.72 -9.562,75.62 -14.234,113.69 l 2125.06,63.96 -2140.47,64.43 c -6.86,58.51 -13.543,117.46 -20.075,176.83 l 2160.545,65.03 -2174.545,65.46 c -6.05,57.85 -11.941,116.13 -17.687,174.84 l 2192.232,65.99 -2204.861,66.37 c -5.32,57.25 -10.488,115.01 -15.519,173.11 l 2220.38,66.8 -2231.681,67.2 c -4.653,56.7 -9.18,113.9 -13.571,171.5 l 2245.252,67.6 -2255.279,67.9 c -4.043,56.3 -7.969,113 -11.773,170.1 l 2267.052,68.3 -2275.873,68.5 c -3.488,55.9 -6.875,112.2 -10.14,169 l 2286.013,68.8 -2293.689,69 c -3.781,70.4 -7.398,141.4 -10.848,213.1 H 12018.4 c -3.6,-70.1 -7.4,-139.8 -11.4,-208.7 z m -352.1,-3075.37 -1207.2,-42.81 -19.4,26.71 -181.7,250.45 1441.7,-51.12 c -10.9,-61.57 -22,-122.63 -33.4,-183.23 z m -60.8,-308.44 -929.7,-32.97 -189.7,261.38 1157.1,-41.03 c -12.3,-62.98 -24.9,-125.44 -37.7,-187.38 z m -67.2,-308.68 -645.8,-22.9 -178.3,245.62 866.6,-30.73 c -13.8,-64.54 -28,-128.57 -42.5,-191.99 z m -74.2,-308.91 -354.9,-12.59 -166.8,229.83 569.9,-20.2 c -15.7,-66.32 -31.8,-131.95 -48.2,-197.04 z m -97.9,-366.74 -195.7,269.61 266.3,-9.45 c -22.8,-87.86 -46.4,-174.48 -70.6,-260.16 z m -9033.19,1276.53 -15.04,-20.75 -1164.2,35.05 c -11.14,61.93 -22.05,124.34 -32.69,187.31 L 2498,8269.19 Z m -232.26,-320.5 -888.63,26.75 c -12.56,63.01 -24.82,126.59 -36.81,190.72 l 1107.18,33.32 z m -217.23,-299.74 -606.82,18.26 c -14.15,64.22 -27.97,129.05 -41.49,194.45 l 820.36,24.7 z m -217.24,-299.76 -318.06,9.57 c -15.96,65.59 -31.61,131.75 -46.87,198.61 l 527.31,15.87 z m -233.01,-321.54 c -20.12,74.38 -39.79,149.55 -58.94,225.62 l 227.4,6.85 z M 535.738,11596.2 c 3.75,-90.7 7.77,-180.7 12.051,-270.1 h 0.043 c 5.68,-118.4 11.836,-235.6 18.477,-351.7 0.152,-2.6 0.3,-5.3 0.453,-7.9 2.054,-35.8 4.168,-71.5 6.312,-107.1 0.293,-4.8 0.586,-9.7 0.887,-14.5 2.109,-34.7 4.262,-69.3 6.461,-103.8 0.324,-5 0.652,-10 0.973,-15.1 2.242,-34.8 4.519,-69.6 6.847,-104.2 0.199,-2.9 0.403,-5.8 0.602,-8.7 10.058,-148.8 20.992,-295.6 32.828,-440.5 0.262,-3.3 0.516,-6.5 0.777,-9.7 2.395,-29.2 4.852,-58.3 7.317,-87.3 0.91,-10.7 1.8,-21.4 2.718,-32.1 2.266,-26.2 4.579,-52.44 6.903,-78.61 1.176,-13.25 2.351,-26.5 3.543,-39.71 2.246,-24.88 4.519,-49.67 6.828,-74.42 1.32,-14.25 2.66,-28.49 4.004,-42.71 2.277,-24.14 4.578,-48.24 6.918,-72.28 1.394,-14.39 2.82,-28.74 4.242,-43.09 2.375,-24.05 4.758,-48.09 7.187,-72.02 1.364,-13.42 2.758,-26.77 4.141,-40.16 2.566,-24.88 5.129,-49.79 7.758,-74.55 2.629,-24.79 5.312,-49.45 8.004,-74.12 5.465,-50.09 11.015,-100 16.734,-149.61 6.957,-60.38 14.16,-120.3 21.504,-179.98 4.672,-37.88 9.398,-75.67 14.223,-113.26 6.945,-54.2 14.027,-108.16 21.304,-161.77 7.453,-54.94 15.082,-109.57 22.891,-163.91 h -0.008 c 7.645,-53.23 15.477,-106.14 23.457,-158.79 2.906,-19.2 5.817,-38.38 8.762,-57.5 16.418,-106.18 33.535,-211.19 51.383,-315.03 4.187,-24.26 8.429,-48.46 12.687,-72.62 8.508,-48.3 17.129,-96.42 25.957,-144.22 h 0.035 c 3.86,-20.9 7.774,-41.71 11.68,-62.52 2.461,-13.06 4.906,-26.14 7.395,-39.16 2.574,-13.55 5.183,-27.04 7.793,-40.55 12.027,-62.19 24.316,-123.98 36.914,-185.31 2.086,-10.14 4.187,-20.24 6.293,-30.33 3.789,-18.29 7.621,-36.52 11.464,-54.73 4.766,-22.47 9.54,-44.91 14.37,-67.28 9.66,-44.79 19.48,-89.33 29.45,-133.65 5.64,-25.06 11.34,-50.03 17.08,-74.96 2.22,-9.64 4.45,-19.27 6.69,-28.89 4.73,-20.38 9.5,-40.73 14.31,-61 11.56,-48.73 23.34,-97.15 35.3,-145.31 8.98,-36.16 18.05,-72.17 27.28,-107.99 0.25,-1.01 0.51,-2.01 0.76,-3.01 30.93,-120.01 63.19,-238.22 96.71,-354.83 l -0.11,-0.16 C 2030.07,3757.2 3580.85,1948.1 6411.45,551.301 9157.08,1942.6 10719.3,3743.2 11540.8,6492.97 l -0.1,0.14 c 48.6,162.7 94.7,328.6 138.2,498.06 12.7,49.27 25.1,98.79 37.4,148.64 4.5,18.53 9,37.11 13.5,55.73 2.6,10.79 5.2,21.6 7.8,32.42 5.5,23.31 11.1,46.67 16.5,70.11 10.8,46.05 21.4,92.36 31.8,138.9 4.9,22.11 9.9,44.29 14.7,66.49 3.7,16.75 7.4,33.5 11,50.31 2.6,11.89 5.1,23.76 7.7,35.68 12.9,60.53 25.5,121.52 37.9,182.89 2.8,13.93 5.6,27.86 8.4,41.84 2.5,13.01 5.1,26.08 7.7,39.12 3.8,19.55 7.6,39.08 11.4,58.7 v 0 c 10.1,52.24 19.9,104.85 29.6,157.68 3.8,20.87 7.7,41.73 11.4,62.67 18.7,103.76 36.6,208.7 53.8,314.79 2.8,17.29 5.5,34.64 8.3,51.99 8.9,55.75 17.6,111.8 26.1,168.21 v 0 c 7.8,52.24 15.6,104.75 23.1,157.55 8.2,57.36 16.2,115.09 24,173.12 4,29.98 8,60.12 11.9,90.28 8.9,68.16 17.6,136.71 26,205.79 5.3,43.92 10.5,88.05 15.7,132.35 3,26.34 6,52.72 9,79.21 2.8,24.65 5.5,49.44 8.2,74.21 1.5,13.57 3,27.1 4.5,40.72 2.5,23.71 5,47.52 7.5,71.34 1.5,14.61 3.1,29.22 4.6,43.89 2.4,23.76 4.9,47.6 7.3,71.47 1.4,14.59 2.9,29.2 4.3,43.82 2.5,24.41 4.8,48.85 7.2,73.36 1.3,13.62 2.6,27.26 3.9,40.91 2.4,25.79 4.8,51.64 7.2,77.54 1,11.2 2,22.4 3.1,33.5 2.5,28.6 5.1,57.1 7.6,85.8 0.4,4 0.7,8 1,11.9 12.6,143.9 24.2,289.7 34.9,437.4 0.2,3.5 0.5,7 0.8,10.5 2.4,34.2 4.8,68.4 7.2,102.8 0.4,5.6 0.8,11.3 1.2,16.9 2.3,34 4.6,68 6.8,102.2 0.4,5.4 0.7,10.9 1.1,16.3 2.2,35 4.5,70.1 6.7,105.4 0.2,3.4 0.4,6.8 0.6,10.3 7.1,115.6 13.7,232.3 19.8,350.2 h 0.1 c 4.6,89.4 8.9,179.4 13,270.1 H 535.738"
         style="fill:#ffffff;fill-opacity:1;stroke:none"
         transform="matrix(0.13333333,0,0,-0.13333333,0,1914.5067)" />
      <path
         id="path4"
         d="M 10226,7879.09 8918.03,6074.27 6369.8,9585.64 3829.47,6080.26 2524.04,7879.09 1324.97,6224.52 C 2145.6,3625 3684.71,1896.9 6411.45,551.301 9056.81,1891.8 10603.6,3612.2 11447.8,6195.45 L 10226,7879.09"
         style="fill:#100f0d;fill-opacity:1;stroke:none"
         transform="matrix(0.13333333,0,0,-0.13333333,0,1914.5067)" />
      <path
         id="path5"
         d="m 10427.8,5544.72 -448.99,-299.32 299.29,1047.64 -177,579.08 L 9261.66,5600.73 10366.2,4078.7 Z M 2329.78,4010.9 2944.63,4859.31 V 6143.37 L 2495.64,5993.7 2399.12,6872.12 1511.2,5682.87 c 125.79,-336.89 265.47,-658.35 420.24,-965.54 l 264.89,378.4 V 4230.6 c 43.47,-74.1 87.93,-147.4 133.45,-219.7 z m 3298.48,308.5 10.31,1075.65 L 4740.61,4796.4 5339.24,6143.37 3066.62,3924 l 3160.27,4509.62 -149.64,-822.85 448.98,493.71 157.97,-594.27 -297.32,-1067.52 598.67,149.66 -448.99,-1346.95 -908.3,-926"
         style="fill:#ffffff;fill-opacity:1;stroke:none"
         transform="matrix(0.13333333,0,0,-0.13333333,0,1914.5067)" />
      <path
         id="path6"
         d="M 6411.45,551.301 C 2133.73,2662.3 778.793,5714.58 535.738,11596.2 H 12282.2 C 12018.9,5715.1 10577.2,2662.1 6411.45,551.301 Z M 12328.4,14358.4 c -1264.8,-1 -9378.62,-1.1 -11835.295,-1.1 H 0 v -493.1 C 0,11858.4 80.7734,10291.9 254.211,8934.42 445.027,7440.81 753.926,6197.04 1198.55,5132.05 1667.46,4008.9 2294.06,3063.4 3114.16,2241.7 3925.42,1428.8 4932.6,731.199 6193.23,109.102 L 6414.37,0 6634.33,111.5 c 1231.47,624 2220.22,1321.3 3022.76,2131.7 816.01,824.1 1443.61,1768.3 1918.61,2886.62 455.3,1072.09 774,2315.82 974.1,3802.24 183.1,1360.04 272.1,2973.74 272.1,4933.24 v 493.5 l -493.5,-0.4"
         style="fill:#100f0d;fill-opacity:1;stroke:none"
         transform="matrix(0.13333333,0,0,-0.13333333,0,1914.5067)" />
      <path
         id="path7"
         d="m 11913.2,13417.4 h -129.1 v -884 h 129.1 z m -282,153 h 332.9 c 57.8,0 101.9,-47.6 101.9,-102 v -987.7 c 0,-54.4 -45.8,-100.3 -101.9,-100.3 h -332.9 z m -451.8,0 146,-591.6 v 591.6 h 152.9 v -1190 h -180 l -152.9,639.2 v -639.2 h -152.9 v 1190 z m -621.7,0 v -1037 h 129.1 v 1037 h 152.8 v -1089.7 c 0,-54.4 -45.8,-100.3 -101.9,-100.3 h -231 c -54.3,0 -101.9,45.9 -101.9,100.3 v 1089.7 z m -653.98,-1190 v 1190 h 382.18 v -153 h -229.3 v -328.1 h 161.4 v -153 h -161.4 v -555.9 z m -769.44,1190 h 152.88 v -549.1 h 129.08 v 549.1 h 152.88 v -1190 h -152.88 v 487.9 h -129.08 v -487.9 h -152.88 z m -390.67,-153 h -135.89 v 153 h 424.65 v -153 h -135.88 v -1037 h -152.88 z m -867.98,153 84.93,-834.7 101.92,834.7 h 157.97 l 101.92,-831.3 84.92,831.3 h 157.97 l -127.39,-1190 h -231 l -64.56,544 -66.25,-544 h -231 l -127.39,1190 z m -404.27,-153 h -129.08 v -884 h 129.08 z m -281.97,51 c 0,54.4 47.57,102 101.93,102 h 230.99 c 57.76,0 101.93,-47.6 101.93,-102 v -987.7 c 0,-54.4 -45.87,-100.3 -101.93,-100.3 h -230.99 c -54.36,0 -101.93,45.9 -101.93,100.3 z m -426.33,-430.1 h 110.41 v 379.1 h -110.41 z m 129.08,-153 h -129.08 v -504.9 h -152.88 v 1190 h 314.24 c 57.76,0 101.92,-47.6 101.92,-102 v -414.8 c 0,-42.5 -22.09,-74.8 -52.66,-83.3 45.86,-10.2 71.34,-57.8 71.34,-100.3 v -489.6 h -152.88 z m -587.72,328.1 v 204 h -129.08 v -884 h 129.08 v 273.7 h -50.95 v 153 h 203.83 v -479.4 c 0,-54.4 -45.86,-100.3 -101.92,-100.3 h -231 c -54.35,0 -101.92,45.9 -101.92,100.3 v 987.7 c 0,54.4 47.57,102 101.92,102 h 231 c 57.75,0 101.92,-47.6 101.92,-102 v -255 z m -888.34,-442 -183.43,799 h 157.97 l 101.91,-561 101.91,561 h 157.97 l -183.45,-799 v -391 h -152.88 z m -507.86,646 h -135.89 v 153 h 424.65 v -153 H 5061.1 v -1037 h -152.88 z m -390.68,153 h 152.88 v -1190 h -152.88 z m -434.83,-831.3 v -205.7 h 129.08 v 384.2 h -180.04 c -59.46,0 -101.93,49.3 -101.93,100.3 v 450.5 c 0,59.5 40.78,102 101.93,102 h 230.99 c 57.76,0 101.93,-42.5 101.93,-100.3 v -249.9 h -152.88 v 197.2 h -129.08 v -346.8 h 180.03 c 57.76,0 101.93,-47.6 101.93,-102 v -487.9 c 0,-54.4 -45.87,-100.3 -101.93,-100.3 h -230.99 c -54.36,0 -101.93,45.9 -101.93,100.3 v 258.4 z m -579.22,299.2 h 110.41 v 379.1 h -110.41 z m 129.08,-153 h -129.08 v -504.9 h -152.88 v 1190 h 314.24 c 57.76,0 101.92,-47.6 101.92,-102 v -414.8 c 0,-42.5 -22.09,-74.8 -52.66,-83.3 45.86,-10.2 71.34,-57.8 71.34,-100.3 v -489.6 h -152.88 z m -417.83,-504.9 h -394.09 v 1190 h 382.19 v -153 h -229.31 v -328.1 h 161.36 v -153 h -161.36 v -402.9 h 241.21 z m -845.92,1190 101.91,-952 101.93,952 h 157.97 l -144.39,-1190 h -231.01 l -144.38,1190 z m -400.86,0 h 152.87 v -1190 h -152.87 z m -451.84,0 146.08,-591.6 v 591.6 h 152.88 v -1190 h -180.05 l -152.87,639.2 v -639.2 h -152.88 v 1190 z m -621.686,0 v -1037 h 129.096 v 1037 h 152.87 v -1089.7 c 0,-54.4 -45.86,-100.3 -101.91,-100.3 H 843.473 c -54.356,0 -101.914,45.9 -101.914,100.3 v 1089.7 h 152.875"
         style="fill:#ffffff;fill-opacity:1;stroke:none"
         transform="matrix(0.13333333,0,0,-0.13333333,0,1914.5067)" />
      <path
         id="path8"
         d="m 9306.7,2590.2 c -48.46,-56.3 -98.7,-111 -149.11,-165.6 -50.85,-54.2 -102.62,-107.6 -154.95,-160.4 -104.66,-105.8 -213.15,-207.8 -324.06,-307.3 -222.1,-198.6 -455.45,-385 -696.79,-560.4 C 7860.97,1309 7738.37,1223.9 7613.68,1142 7489.29,1059.7 7362.76,980.602 7235.05,903.5 7107.45,826.301 6977.73,752.602 6847.39,680.199 c -130.55,-72 -262.59,-141.301 -395.3,-209.097 l -39.97,-20.403 -40.47,20 c -135.23,66.801 -269.33,136 -402.49,207 C 5836.39,749.5 5704.53,823 5574.34,899.5 c -129.97,76.801 -259.08,155.2 -385.78,237.4 -63.42,40.9 -126.5,82.4 -189.1,124.7 -62.45,42.4 -124.47,85.5 -186.04,129.2 -246.03,175.1 -483.93,361.7 -710.23,561.1 -113,99.9 -223.48,202.5 -330.06,308.9 -53.29,53.2 -105.92,107 -157.7,161.6 -51.28,55.1 -102.35,110.2 -151.62,167 56.72,-49.3 113.05,-98.9 170.49,-147.2 56.95,-48.7 114.38,-96.9 172.44,-144.1 116.1,-94.6 233.34,-187.5 352.69,-277.3 238.39,-180.2 483.23,-350.8 733.7,-512.5 62.56,-40.5 125.54,-80.4 188.89,-119.6 63.19,-39.5 126.73,-78.4 190.65,-116.7 127.98,-76.3 256.56,-151.6 386.8,-224.1 130.01,-72.798 260.94,-144.099 393.16,-212.9 131.8,-69.699 264.85,-137 398.61,-203 l -80.44,-0.398 c 131.64,66.199 262.09,134.597 391.86,204.296 129.95,69.301 258.39,141.301 386.32,214.202 127.85,73 254.33,148.4 380.01,225.1 125.38,77.1 249.9,155.8 372.81,236.9 246.09,161.9 486.62,332.5 720.89,512.2 117.25,89.7 232.5,182.2 346.69,276.3 57.08,47 113.51,95 169.58,143.4 56.51,48 111.91,97.2 167.74,146.2"
         style="fill:#ffffff;fill-opacity:1;stroke:none"
         transform="matrix(0.13333333,0,0,-0.13333333,0,1914.5067)" />
    </g>
  </g>
</svg>
